<svg width="157" height="182" viewBox="0 0 157 182" fill="none" xmlns="http://www.w3.org/2000/svg">
<g clip-path="url(#clip0_11_421)">
<path d="M150.327 124.778C151.382 125.577 152.077 126.757 152.261 128.064C152.446 129.37 152.104 130.697 151.311 131.755L124.585 166.772C124.185 167.303 123.684 167.749 123.11 168.085C122.536 168.422 121.901 168.641 121.241 168.731C120.581 168.82 119.91 168.779 119.267 168.608C118.624 168.437 118.022 168.141 117.496 167.736L10.9591 84.2534C10.3673 83.7985 9.88526 83.2176 9.54831 82.5532C9.21136 81.8888 9.02798 81.1576 9.0116 80.4132C8.99522 79.6688 9.14625 78.93 9.45363 78.2507C9.76102 77.5715 10.217 76.969 10.7882 76.4873L43.0161 48.8622C43.885 48.1226 44.9822 47.7017 46.1245 47.6698C47.2668 47.6379 48.385 47.997 49.2924 48.6871L150.327 124.778Z" fill="#111738"/>
<path d="M16.0333 79.8657L19.6389 76.8851C19.3184 77.669 19.274 78.5376 19.5128 79.3492C19.7517 80.1608 20.2598 80.8677 20.9544 81.3547C21.6489 81.8417 22.489 82.0801 23.3379 82.0311C24.1867 81.9822 24.9942 81.6487 25.6288 81.085L48.802 60.5371C49.3288 60.0707 49.7136 59.4665 49.9124 58.7935C50.1111 58.1204 50.1159 57.4056 49.9263 56.7304C49.7366 56.0553 49.36 55.447 48.8395 54.9748C48.319 54.5027 47.6755 54.1858 46.9823 54.0601L48.84 52.5245C49.081 52.3252 49.3833 52.2141 49.6964 52.2097C50.0096 52.2052 50.3146 52.3077 50.5608 52.5001L146.406 125.155C146.549 125.267 146.669 125.407 146.757 125.566C146.846 125.724 146.901 125.899 146.921 126.08C146.94 126.26 146.923 126.443 146.871 126.617C146.819 126.791 146.732 126.953 146.615 127.093L119.42 161.042C119.193 161.315 118.869 161.49 118.515 161.53C118.162 161.57 117.806 161.471 117.525 161.254L16.0692 81.9918C15.907 81.867 15.7751 81.7076 15.6832 81.5252C15.5914 81.3428 15.5419 81.1421 15.5384 80.938C15.535 80.7339 15.5777 80.5316 15.6633 80.346C15.749 80.1604 15.8754 79.9963 16.0333 79.8657Z" fill="white"/>
<path d="M119.849 109.793L96.7736 137.647L26.797 84.3074L55.8106 59.8606L119.849 109.793Z" fill="#E6E6E6"/>
<path d="M31.1223 99.1046C30.9704 99.2903 30.7525 99.4106 30.514 99.4407C30.2754 99.4708 30.0345 99.4084 29.8412 99.2663L23.7136 94.5367C23.5227 94.3889 23.3986 94.1718 23.3685 93.9329C23.3383 93.694 23.4046 93.4529 23.5528 93.2623C23.7047 93.0767 23.9225 92.9563 24.1611 92.9262C24.3997 92.8961 24.6406 92.9586 24.8338 93.1007L30.9615 97.8302C31.1523 97.978 31.2764 98.1951 31.3066 98.434C31.3367 98.6729 31.2705 98.9141 31.1223 99.1046Z" fill="#A0A2AF"/>
<path d="M41.4446 107.072C41.2958 107.262 41.0774 107.386 40.8373 107.416C40.5972 107.447 40.3549 107.381 40.1636 107.234L34.0359 102.504C33.9411 102.431 33.8618 102.34 33.8023 102.237C33.7429 102.133 33.7046 102.019 33.6896 101.9C33.6746 101.782 33.6833 101.662 33.715 101.546C33.7467 101.431 33.8009 101.323 33.8745 101.229C33.9481 101.135 34.0396 101.056 34.1439 100.997C34.2481 100.937 34.3631 100.899 34.4821 100.884C34.6011 100.869 34.7219 100.878 34.8376 100.909C34.9532 100.941 35.0615 100.995 35.1562 101.068L41.2838 105.798C41.4747 105.945 41.5989 106.163 41.629 106.401C41.6591 106.64 41.5928 106.882 41.4446 107.072Z" fill="#A0A2AF"/>
<path d="M122.671 137.027C119.294 137.453 116.213 135.075 115.789 131.715C115.366 128.356 117.759 125.287 121.136 124.861C124.513 124.435 127.594 126.813 128.018 130.172C128.441 133.532 126.048 136.601 122.671 137.027Z" fill="url(#paint0_linear_11_421)"/>
<path d="M84.8405 115.25C75.5233 116.425 67.4548 113.293 66.819 108.254C66.1831 103.214 73.2208 98.1762 82.5379 97.0006C91.8551 95.825 99.9236 98.9572 100.559 103.997C101.195 109.036 94.1577 114.074 84.8405 115.25Z" fill="white"/>
<path d="M95.4551 24.2767L95.8867 26.0733L96.1414 27.1365L97.3906 32.3365C97.3906 32.3365 97.9394 33.1027 98.8808 34.1551C100.446 35.9042 103.104 38.4426 106.146 39.5711C111.021 41.3787 110.664 24.0238 110.664 24.0238C110.664 24.0238 110.815 17.2586 108.356 17.3213C105.897 17.384 107.093 20.1389 107.502 24.8682C107.911 29.5974 105.242 33.9784 105.242 33.9784C105.242 33.9784 101.278 29.7441 99.3999 26.8043C98.4217 25.2728 97.3913 24.6508 96.6302 24.408L96.628 24.4074C96.3765 24.3243 96.1151 24.2747 95.8505 24.2599C95.7185 24.2509 95.5859 24.2565 95.4551 24.2767Z" fill="#FFB8B8"/>
<path d="M103.914 30.8233L97.0116 36.0695L92.0503 29.3933L92.5571 26.036C93.5123 25.0775 94.782 24.4927 96.1339 24.3887C97.4858 24.2847 98.8295 24.6684 99.9193 25.4696L103.914 30.8233Z" fill="url(#paint1_linear_11_421)"/>
<path d="M97.9498 5.49314C102.484 6.72205 105.043 11.7786 103.666 16.7873L101.917 23.1508L99.9506 22.6179L99.4604 19.9516L99.0969 22.3865L86.4593 18.9611L86.0137 16.5373L85.6832 18.7508L84.2603 18.3651L85.6339 13.3686C87.2184 7.60495 92.7324 4.07898 97.9498 5.49314Z" fill="#2F2E41"/>
<path d="M97.5726 37.0042L97.5058 42.5768L84.9038 38.6749L86.3127 34.4384C86.3127 34.4384 96.5415 34.5371 97.5726 37.0042Z" fill="#A0616A"/>
<path d="M104.123 61.1424L97.545 69.0822L94.9874 63.2846L99.9102 57.8129L104.123 61.1424Z" fill="#FFB8B8"/>
<path d="M84.7547 91.6242L81.4396 101.907L76.4399 100.552L79.9824 90.3307L84.7547 91.6242Z" fill="#FFB8B8"/>
<path d="M102.417 50.4709L98.0923 57.3201L84.7333 92.5907C84.7333 92.5907 81.303 92.6332 79.3414 90.8861L80.255 85.7862L87.1818 57.0366C87.1818 57.0366 83.4858 53.6041 84.8109 50.5603C86.1361 47.5164 88.454 43.5263 88.454 43.5263L102.417 50.4709Z" fill="#111738"/>
<path d="M81.4419 99.2338L82.8054 99.6034C82.8054 99.6034 85.5494 104.722 86.7885 105.544C88.0277 106.366 94.0154 112.122 88.1475 111.26C82.2795 110.399 79.4519 106.473 79.4519 106.473C79.4519 106.473 77.3229 107.111 75.0718 105.529C72.8208 103.946 74.9305 101.601 74.9305 101.601C74.9305 101.601 77.3369 97.8078 77.3752 97.8533C77.4135 97.8988 78.2173 100.304 81.4419 99.2338Z" fill="#111738"/>
<path d="M95.6655 19.9584C92.7788 19.176 91.079 16.2122 91.869 13.3387C92.6589 10.4652 95.6395 8.77003 98.5262 9.55246C101.413 10.3349 103.113 13.2986 102.323 16.1722C101.533 19.0457 98.5523 20.7408 95.6655 19.9584Z" fill="#FFB8B8"/>
<path d="M87.5035 19.4476L89.3594 22.0946L89.6087 22.449L89.0897 25.2251L97.9526 27.6274C97.9526 27.6274 97.0303 26.2569 96.2043 24.8735C96.1884 24.8425 96.1709 24.8086 96.1505 24.7763C96.0386 24.588 95.9396 24.4153 95.8505 24.2599C95.8032 24.1741 95.757 24.0935 95.7164 24.0193C95.6499 23.8968 95.5845 23.7794 95.5191 23.662C95.5182 23.6605 95.5178 23.6587 95.5181 23.6569C95.3521 23.3516 95.2038 23.037 95.0738 22.7149L95.0721 22.712C95.0373 22.6252 95.0071 22.5367 94.9814 22.4468C94.6106 21.1309 96.8233 19.3 96.8233 19.3L92.5077 15.4564C91.6586 17.8612 89.1244 18.9341 88.0235 19.2969C87.7017 19.4017 87.5035 19.4476 87.5035 19.4476Z" fill="#FFB8B8"/>
<path d="M64.7839 54.1257C67.944 55.9545 70.0369 49.2296 70.0369 49.2296L77.2358 41.2282C78.757 39.5374 80.0091 37.6251 80.9486 35.5576L83.8581 29.1548L84.0768 29.6297L84.0762 29.6319L84.5806 30.0798L89.6851 25.3865L91.1158 24.0728L91.6133 22.2631L88.6398 19.7556L87.2762 19.386C87.2762 19.386 87.2479 19.3735 87.1969 19.3548C86.5877 19.1192 82.5808 17.7415 81.2816 21.6504C80.7714 23.1844 80.4241 24.4758 80.1885 25.499C79.5484 28.3331 78.511 31.064 77.1066 33.6114C76.5959 34.5288 76.0989 35.3109 75.7107 35.697C74.3664 37.0341 67.7644 48.6136 67.7644 48.6136C67.7644 48.6136 61.6239 52.2969 64.7839 54.1257Z" fill="#FFB8B8"/>
<path d="M95.0738 22.7149C95.0761 22.7422 95.1275 22.9725 95.7164 24.0193C95.4743 23.5987 95.2597 23.163 95.0738 22.7149Z" fill="#D0CDE1"/>
<path d="M83.9407 29.2987L84.0762 29.6319L85.0379 36.7178C85.0379 36.7178 88.5046 41.4468 91.8106 41.8567C93.6831 42.0341 96.872 39.8187 97.4085 41.6122L97.9458 35.6469L98.8809 34.1551C98.9899 33.9805 99.1137 33.788 99.2494 33.5696C100.553 31.4922 98.7373 28.3262 98.7373 28.3262L96.6303 24.408L96.628 24.4074C96.3766 24.3243 96.1151 24.2747 95.8505 24.2599C95.9397 24.4153 96.0387 24.588 96.1505 24.7763C96.171 24.8086 96.1885 24.8425 96.2044 24.8735C96.8316 25.994 96.3116 26.118 95.8868 26.0733C95.7466 26.0574 95.6084 26.0272 95.4744 25.9834C94.4894 25.8623 92.6422 24.4719 91.3099 23.367C90.4029 22.6156 89.7331 21.9965 89.7331 21.9965L88.2467 19.6491L88.0236 19.2969C87.7017 19.4017 87.5035 19.4476 87.5035 19.4476L87.2763 19.386C87.2763 19.386 87.248 19.3735 87.197 19.3548L88.0216 20.3996C88.4322 20.9198 88.7054 21.5341 88.8163 22.1866C88.9272 22.8391 88.8724 23.5091 88.6567 24.1355L83.9407 29.2987Z" fill="url(#paint2_linear_11_421)"/>
<path d="M94.5538 39.1028L97.5212 41.2948C97.5212 41.2948 117.471 39.2375 118.643 45.6321C119.815 52.0267 103.812 62.2734 103.812 62.2734L99.042 58.3067L103.18 52.1362C103.18 52.1362 86.9522 59.6481 83.1771 52.062C79.4021 44.4758 85.4124 36.8251 85.4124 36.8251C85.4124 36.8251 89.5565 35.0745 94.5538 39.1028Z" fill="#111738"/>
<path d="M97.3199 66.3474L98.9299 68.4853C98.9299 68.4853 95.1218 75.2314 95.4926 76.5473C95.8634 77.8632 96.3563 81.3998 93.9187 80.496C91.4811 79.5922 89.8112 75.0074 89.9571 73.5885C90.103 72.1696 89.6316 67.6666 89.6316 67.6666C89.6316 67.6666 88.6458 60.5934 90.7533 60.9215C92.8608 61.2497 96.16 61.9812 96.16 61.9812L97.3199 66.3474Z" fill="#111738"/>
<path d="M94.9292 7.35877C95.4694 6.93778 96.0997 6.64618 96.7711 6.5066C97.4425 6.36702 98.137 6.3832 98.8007 6.55389L98.9619 6.59758C102.069 7.43988 103.819 10.9218 102.87 14.3747L101.829 14.0925L102.011 12.7728L101.414 13.9801L95.2382 12.3062L95.0172 11.088L94.8502 12.201L93.6352 11.8717C92.2978 14.5207 92.342 17.5442 93.7676 20.9421L91.698 20.3811L91.2559 17.9447L90.9219 20.1707L86.9767 19.1014L87.5637 13.9325C88.5846 10.219 91.6178 7.65756 94.9292 7.35877Z" fill="#2F2E41"/>
<path d="M75.0663 28.7298L87.0077 31.9665L89.5431 22.744L87.599 19.3543C86.1746 18.7235 84.569 18.6244 83.0759 19.075C81.5827 19.5255 80.3018 20.4957 79.4674 21.8081L75.0663 28.7298Z" fill="url(#paint3_linear_11_421)"/>
</g>
<defs>
<linearGradient id="paint0_linear_11_421" x1="128.018" y1="130.172" x2="115.789" y2="131.715" gradientUnits="userSpaceOnUse">
<stop stop-color="#6100FF"/>
<stop offset="1" stop-color="#AD00FF"/>
</linearGradient>
<linearGradient id="paint1_linear_11_421" x1="103.725" y1="29.3233" x2="92.2246" y2="30.7743" gradientUnits="userSpaceOnUse">
<stop stop-color="#6100FF"/>
<stop offset="1" stop-color="#AD00FF"/>
</linearGradient>
<linearGradient id="paint2_linear_11_421" x1="99.4826" y1="29.5776" x2="84.2189" y2="31.5035" gradientUnits="userSpaceOnUse">
<stop stop-color="#6100FF"/>
<stop offset="1" stop-color="#AD00FF"/>
</linearGradient>
<linearGradient id="paint3_linear_11_421" x1="89.8117" y1="24.8728" x2="74.8184" y2="26.7646" gradientUnits="userSpaceOnUse">
<stop stop-color="#6100FF"/>
<stop offset="1" stop-color="#AD00FF"/>
</linearGradient>
<clipPath id="clip0_11_421">
<rect width="136.186" height="165.543" fill="white" transform="matrix(-0.992134 0.125182 0.125182 0.992134 136.104 0)"/>
</clipPath>
</defs>
</svg>
