<svg width="100" height="100" viewBox="0 0 100 100" fill="none" xmlns="http://www.w3.org/2000/svg">
<rect x="0.5" y="0.5" width="99" height="99" rx="17.5" fill="#111738" stroke="url(#paint0_linear_3_5)"/>
<path d="M22.2014 64H12.1276V37.8182H22.0992C24.7924 37.8182 27.1191 38.3423 29.0793 39.3906C31.048 40.4304 32.5651 41.9304 33.6304 43.8906C34.7043 45.8423 35.2412 48.1818 35.2412 50.9091C35.2412 53.6364 34.7085 55.9801 33.6432 57.9403C32.5779 59.892 31.0693 61.392 29.1176 62.4403C27.1659 63.4801 24.8605 64 22.2014 64ZM19.2355 57.9659H21.9458C23.2412 57.9659 24.3449 57.7571 25.2568 57.3395C26.1773 56.9219 26.8762 56.2017 27.3534 55.179C27.8392 54.1562 28.0821 52.733 28.0821 50.9091C28.0821 49.0852 27.835 47.6619 27.3406 46.6392C26.8549 45.6165 26.1389 44.8963 25.1929 44.4787C24.2554 44.0611 23.1049 43.8523 21.7412 43.8523H19.2355V57.9659ZM43.3187 64H35.6483L44.2903 37.8182H54.0062L62.6483 64H54.9778L49.2505 45.0284H49.046L43.3187 64ZM41.8869 53.6705H56.3074V58.9886H41.8869V53.6705ZM88.0226 47.6364H80.8124C80.7613 47.0398 80.6249 46.4986 80.4033 46.0128C80.1902 45.527 79.892 45.1094 79.5084 44.7599C79.1334 44.402 78.6775 44.1293 78.1405 43.9418C77.6036 43.7457 76.9942 43.6477 76.3124 43.6477C75.1192 43.6477 74.1093 43.9375 73.2826 44.517C72.4644 45.0966 71.8422 45.9276 71.4161 47.0099C70.9985 48.0923 70.7897 49.392 70.7897 50.9091C70.7897 52.5114 71.0027 53.8537 71.4289 54.9361C71.8635 56.0099 72.49 56.8196 73.3081 57.3651C74.1263 57.902 75.1107 58.1705 76.2613 58.1705C76.9175 58.1705 77.5056 58.0895 78.0255 57.9276C78.5454 57.7571 78.9971 57.5142 79.3806 57.1989C79.7641 56.8835 80.0752 56.5043 80.3138 56.0611C80.561 55.6094 80.7272 55.1023 80.8124 54.5398L88.0226 54.5909C87.9374 55.6989 87.6263 56.8281 87.0894 57.9787C86.5525 59.1207 85.7897 60.1776 84.801 61.1491C83.8209 62.1122 82.6064 62.8878 81.1576 63.4759C79.7087 64.0639 78.0255 64.358 76.1079 64.358C73.7045 64.358 71.5482 63.8423 69.6391 62.8111C67.7385 61.7798 66.2343 60.2628 65.1263 58.2599C64.0269 56.2571 63.4772 53.8068 63.4772 50.9091C63.4772 47.9943 64.0397 45.5398 65.1647 43.5455C66.2897 41.5426 67.8067 40.0298 69.7158 39.0071C71.6249 37.9759 73.7556 37.4602 76.1079 37.4602C77.7613 37.4602 79.2826 37.6861 80.6718 38.1378C82.061 38.5895 83.2797 39.25 84.328 40.1193C85.3763 40.9801 86.2201 42.0412 86.8593 43.3026C87.4985 44.5639 87.8863 46.0085 88.0226 47.6364Z" fill="white"/>
<rect x="11" y="25" width="56" height="9" rx="4.5" fill="url(#paint1_linear_3_5)"/>
<defs>
<linearGradient id="paint0_linear_3_5" x1="1" y1="50" x2="99" y2="50" gradientUnits="userSpaceOnUse">
<stop stop-color="#6100FF"/>
<stop offset="1" stop-color="#AD00FF"/>
</linearGradient>
<linearGradient id="paint1_linear_3_5" x1="11" y1="29.5" x2="67" y2="29.5" gradientUnits="userSpaceOnUse">
<stop stop-color="#6100FF"/>
<stop offset="1" stop-color="#AD00FF"/>
</linearGradient>
</defs>
</svg>
