<svg width="375" height="299" viewBox="0 0 375 299" fill="none" xmlns="http://www.w3.org/2000/svg">
<path fill-rule="evenodd" clip-rule="evenodd" d="M328.363 1.68863C388.428 13.7251 399.052 100.568 414.376 159.89C426.565 207.072 401.274 254.413 406.174 302.899C411.818 358.746 468.939 412.444 445.032 463.235C421.743 512.712 353.55 526.016 299.06 530.46C252.504 534.256 214.08 498.902 169.271 485.722C133.109 475.086 93.7125 479.921 61.3777 460.55C25.5215 439.068 -9.04562 410.379 -22.5379 370.811C-36.177 330.812 -15.1041 289.186 -11.4115 247.083C-6.68451 193.187 -40.3153 122.09 2.20939 88.6446C45.6863 54.4498 109.956 123.844 163.396 109.596C228.193 92.3207 262.617 -11.4862 328.363 1.68863Z" fill="#111738"/>
</svg>
