<svg width="19" height="21" viewBox="0 0 19 21" fill="none" xmlns="http://www.w3.org/2000/svg">
<path fill-rule="evenodd" clip-rule="evenodd" d="M9.88489 0.210648C9.52378 -0.0702159 9.01812 -0.0702159 8.65701 0.210648L0.386059 6.64361C0.142473 6.83306 0 7.12437 0 7.43296V17.5419C0 18.2946 0.299002 19.0164 0.831227 19.5487C1.36345 20.0809 2.08531 20.3799 2.83799 20.3799H15.7039C16.4566 20.3799 17.1784 20.0809 17.7107 19.5487C18.2429 19.0164 18.5419 18.2946 18.5419 17.5419V7.43296C18.5419 7.12437 18.3994 6.83306 18.1558 6.64361L9.88489 0.210648ZM2 17.5419V7.92204L9.27095 2.26686L16.5419 7.92204V17.5419C16.5419 17.7641 16.4536 17.9773 16.2965 18.1344C16.1393 18.2916 15.9262 18.3799 15.7039 18.3799H13.0279V10.1899C13.0279 9.63763 12.5802 9.18991 12.0279 9.18991H6.51398C5.96169 9.18991 5.51398 9.63763 5.51398 10.1899V18.3799H2.83799C2.61574 18.3799 2.40259 18.2916 2.24544 18.1344C2.08829 17.9773 2 17.7641 2 17.5419ZM7.51398 18.3799H11.0279V11.1899H7.51398V18.3799Z" fill="#111738" fill-opacity="0.75"/>
</svg>
