<svg width="285" height="264" viewBox="0 0 285 264" fill="none" xmlns="http://www.w3.org/2000/svg">
<g clip-path="url(#clip0_11_378)">
<path d="M174.663 171.136L115.101 174.576C114.893 174.588 114.688 174.516 114.533 174.376C114.377 174.237 114.282 174.041 114.27 173.832L110.47 108.018C110.458 107.808 110.529 107.603 110.668 107.446C110.807 107.29 111.001 107.195 111.21 107.183L170.771 103.744C170.979 103.732 171.184 103.804 171.34 103.943C171.496 104.082 171.59 104.278 171.602 104.487L175.403 170.302C175.415 170.511 175.343 170.717 175.205 170.873C175.066 171.029 174.871 171.124 174.663 171.136Z" fill="white"/>
<path d="M174.663 171.136L115.101 174.576C114.893 174.588 114.688 174.516 114.533 174.376C114.377 174.237 114.282 174.041 114.27 173.832L110.47 108.018C110.458 107.808 110.529 107.603 110.668 107.446C110.807 107.29 111.001 107.195 111.21 107.183L170.771 103.744C170.979 103.732 171.184 103.804 171.34 103.943C171.496 104.082 171.59 104.278 171.602 104.487L175.403 170.302C175.415 170.511 175.343 170.717 175.205 170.873C175.066 171.029 174.871 171.124 174.663 171.136ZM111.228 107.499C111.103 107.506 110.986 107.563 110.903 107.657C110.82 107.751 110.777 107.874 110.784 107.999L114.584 173.814C114.592 173.939 114.648 174.057 114.742 174.141C114.835 174.224 114.958 174.267 115.083 174.26L174.644 170.821C174.769 170.813 174.886 170.757 174.97 170.663C175.053 170.569 175.096 170.446 175.089 170.32L171.288 104.506C171.281 104.38 171.224 104.263 171.131 104.179C171.037 104.095 170.914 104.052 170.789 104.059L111.228 107.499Z" fill="#3F3D56"/>
<path d="M138.353 130.794L123.581 131.647C123.373 131.659 123.168 131.587 123.012 131.448C122.856 131.308 122.762 131.112 122.75 130.903L121.893 116.067C121.881 115.858 121.952 115.653 122.091 115.496C122.23 115.34 122.425 115.245 122.633 115.233L137.406 114.38C137.614 114.368 137.819 114.44 137.974 114.579C138.13 114.719 138.225 114.914 138.237 115.124L139.094 129.959C139.106 130.169 139.034 130.374 138.895 130.531C138.757 130.687 138.562 130.782 138.353 130.794ZM122.651 115.549C122.526 115.556 122.409 115.613 122.326 115.707C122.243 115.8 122.2 115.924 122.207 116.049L123.064 130.885C123.071 131.011 123.128 131.128 123.222 131.212C123.315 131.295 123.438 131.338 123.563 131.331L138.335 130.478C138.46 130.471 138.577 130.414 138.66 130.32C138.744 130.226 138.786 130.103 138.779 129.978L137.923 115.142C137.915 115.016 137.859 114.899 137.765 114.815C137.672 114.731 137.549 114.688 137.424 114.695L122.651 115.549Z" fill="#F2F2F2"/>
<path d="M134.215 132.854L119.443 133.707C119.255 133.718 119.071 133.653 118.931 133.528C118.791 133.402 118.706 133.226 118.694 133.038L117.838 118.202C117.827 118.013 117.891 117.829 118.016 117.688C118.141 117.547 118.316 117.462 118.504 117.451L133.276 116.598C133.464 116.587 133.648 116.652 133.788 116.777C133.929 116.903 134.014 117.079 134.025 117.267L134.881 132.103C134.892 132.291 134.828 132.476 134.703 132.617C134.578 132.758 134.403 132.843 134.215 132.854Z" fill="url(#paint0_linear_11_378)"/>
<path d="M166.065 138.299L119.862 140.967C119.769 140.973 119.676 140.96 119.588 140.929C119.5 140.899 119.419 140.851 119.349 140.789C119.279 140.726 119.223 140.651 119.182 140.567C119.141 140.483 119.118 140.391 119.112 140.298C119.107 140.204 119.12 140.111 119.15 140.023C119.181 139.934 119.229 139.853 119.291 139.783C119.353 139.713 119.428 139.657 119.512 139.616C119.596 139.575 119.687 139.552 119.78 139.547L165.983 136.879C166.171 136.868 166.355 136.932 166.495 137.058C166.636 137.183 166.72 137.36 166.731 137.548C166.742 137.736 166.678 137.921 166.553 138.062C166.428 138.203 166.253 138.288 166.065 138.299Z" fill="#CCCCCC"/>
<path d="M155.19 143.836L120.144 145.86C120.051 145.865 119.958 145.853 119.87 145.822C119.782 145.791 119.701 145.743 119.631 145.681C119.562 145.619 119.505 145.544 119.464 145.46C119.424 145.375 119.4 145.284 119.395 145.191C119.389 145.097 119.402 145.004 119.433 144.915C119.464 144.827 119.511 144.746 119.573 144.676C119.635 144.606 119.711 144.549 119.794 144.509C119.878 144.468 119.969 144.445 120.062 144.439L155.108 142.416C155.295 142.405 155.479 142.469 155.62 142.595C155.76 142.72 155.845 142.897 155.856 143.085C155.867 143.273 155.803 143.458 155.678 143.599C155.553 143.74 155.377 143.825 155.19 143.836Z" fill="#CCCCCC"/>
<path d="M164.869 120.316L144.439 121.496C144.251 121.506 144.067 121.442 143.927 121.316C143.787 121.191 143.702 121.014 143.691 120.826C143.68 120.638 143.744 120.453 143.869 120.312C143.994 120.171 144.169 120.086 144.357 120.075L164.787 118.895C164.88 118.89 164.973 118.903 165.061 118.933C165.149 118.964 165.23 119.012 165.3 119.074C165.37 119.136 165.426 119.211 165.467 119.296C165.508 119.38 165.531 119.471 165.537 119.565C165.542 119.658 165.529 119.752 165.498 119.84C165.468 119.928 165.42 120.01 165.358 120.079C165.296 120.149 165.221 120.206 165.137 120.247C165.053 120.287 164.962 120.311 164.869 120.316Z" fill="url(#paint1_linear_11_378)"/>
<path d="M160.053 125.503L144.722 126.388C144.534 126.399 144.35 126.335 144.21 126.209C144.069 126.084 143.984 125.907 143.973 125.719C143.963 125.53 144.027 125.346 144.152 125.205C144.276 125.064 144.452 124.979 144.64 124.968L159.971 124.082C160.158 124.072 160.343 124.136 160.483 124.262C160.623 124.387 160.708 124.564 160.719 124.752C160.73 124.94 160.666 125.125 160.541 125.266C160.416 125.407 160.241 125.492 160.053 125.503Z" fill="url(#paint2_linear_11_378)"/>
<path d="M166.63 148.085L120.427 150.753C120.239 150.763 120.055 150.699 119.915 150.573C119.775 150.448 119.69 150.272 119.679 150.083C119.668 149.895 119.732 149.71 119.857 149.569C119.982 149.428 120.157 149.343 120.345 149.332L166.548 146.664C166.641 146.659 166.734 146.671 166.822 146.702C166.91 146.733 166.992 146.78 167.061 146.843C167.131 146.905 167.188 146.98 167.228 147.064C167.269 147.149 167.292 147.24 167.298 147.333C167.303 147.427 167.29 147.52 167.26 147.609C167.229 147.697 167.181 147.778 167.119 147.848C167.057 147.918 166.982 147.975 166.898 148.015C166.814 148.056 166.723 148.079 166.63 148.085Z" fill="#CCCCCC"/>
<path d="M155.755 153.622L120.71 155.645C120.522 155.656 120.338 155.592 120.197 155.466C120.057 155.341 119.972 155.164 119.961 154.976C119.95 154.787 120.014 154.603 120.139 154.462C120.264 154.321 120.44 154.236 120.627 154.225L155.673 152.201C155.766 152.196 155.859 152.208 155.947 152.239C156.035 152.27 156.116 152.317 156.186 152.38C156.255 152.442 156.312 152.517 156.353 152.601C156.393 152.686 156.417 152.777 156.422 152.87C156.428 152.964 156.415 153.057 156.384 153.146C156.354 153.234 156.306 153.315 156.244 153.385C156.182 153.455 156.107 153.512 156.023 153.552C155.939 153.593 155.848 153.616 155.755 153.622Z" fill="#CCCCCC"/>
<path d="M167.195 157.87L120.992 160.538C120.899 160.543 120.806 160.531 120.718 160.5C120.63 160.469 120.549 160.422 120.479 160.359C120.409 160.297 120.353 160.222 120.312 160.138C120.271 160.053 120.248 159.962 120.242 159.869C120.237 159.775 120.25 159.682 120.281 159.593C120.311 159.505 120.359 159.424 120.421 159.354C120.483 159.284 120.558 159.227 120.642 159.187C120.726 159.146 120.817 159.123 120.91 159.117L167.113 156.449C167.301 156.439 167.485 156.503 167.625 156.629C167.766 156.754 167.851 156.931 167.861 157.119C167.872 157.307 167.808 157.492 167.683 157.633C167.558 157.774 167.383 157.859 167.195 157.87Z" fill="#CCCCCC"/>
<path d="M167.478 162.763L121.275 165.431C121.087 165.441 120.903 165.377 120.763 165.251C120.622 165.126 120.537 164.95 120.526 164.761C120.515 164.573 120.58 164.388 120.705 164.247C120.829 164.106 121.005 164.021 121.193 164.01L167.396 161.342C167.583 161.331 167.768 161.396 167.908 161.521C168.048 161.647 168.133 161.823 168.144 162.012C168.155 162.2 168.091 162.385 167.966 162.526C167.841 162.667 167.665 162.752 167.478 162.763Z" fill="#CCCCCC"/>
<path d="M103.58 204.493C104.117 213.765 101.862 222.982 97.107 230.946C92.3526 238.909 85.3196 245.249 76.9243 249.139C76.2661 249.449 75.5943 249.741 74.9184 250.015C74.1635 250.324 73.3991 250.613 72.6251 250.88C72.0874 251.064 71.5439 251.239 70.9947 251.405C62.7274 253.907 53.9272 254.038 45.5874 251.784C44.9321 251.606 44.2821 251.411 43.6378 251.208C42.7711 250.929 41.9122 250.625 41.0675 250.295C41.0039 250.274 40.9433 250.249 40.8827 250.225C40.551 250.094 40.2287 249.962 39.8997 249.821L39.8966 249.822C39.4464 249.635 39 249.439 38.5572 249.236C37.5393 248.769 36.5413 248.266 35.563 247.728C35.0546 247.451 34.5529 247.161 34.0577 246.86C26.2694 242.211 20.0194 235.358 16.0907 227.159C12.162 218.96 10.7295 209.781 11.9725 200.771C13.2155 191.76 17.0788 183.32 23.0783 176.507C29.0779 169.695 36.9468 164.813 45.6992 162.473C46.5001 162.258 47.3105 162.065 48.1305 161.894C48.6445 161.783 49.1654 161.684 49.6868 161.595C50.0601 161.53 50.4335 161.467 50.8137 161.414L50.8168 161.414C51.8331 161.261 52.8608 161.144 53.8998 161.061C54.0425 161.049 54.1852 161.038 54.331 161.026C54.4117 161.022 54.4923 161.014 54.5732 161.012L54.5763 161.012C54.7004 161.002 54.8246 160.995 54.9519 160.987C55.4737 160.957 55.9959 160.936 56.5156 160.925C57.6607 160.897 58.7957 160.91 59.9206 160.966C60.5705 160.998 61.2121 161.045 61.8541 161.102C61.9262 161.11 62.0013 161.115 62.0735 161.124C62.2866 161.146 62.5029 161.168 62.7162 161.193C63.1676 161.239 63.6165 161.297 64.0659 161.362C64.4869 161.422 64.905 161.486 65.3234 161.556C66.8702 161.817 68.4022 162.16 69.9133 162.583C80.1543 165.451 89.0978 171.78 95.2335 180.501C95.4065 180.744 95.5766 180.991 95.7437 181.241C95.8729 181.428 95.9958 181.615 96.119 181.805C96.1631 181.868 96.2042 181.931 96.2421 181.995C96.2691 182.031 96.2899 182.067 96.3138 182.103C96.5395 182.45 96.7593 182.803 96.9729 183.157C100.886 189.617 103.155 196.945 103.58 204.493Z" fill="white"/>
<path d="M60.3058 253.62C55.3232 253.908 50.3265 253.39 45.5067 252.085C44.8852 251.916 44.2435 251.727 43.5446 251.506C42.6625 251.222 41.7916 250.913 40.9549 250.587C40.8993 250.568 40.8331 250.542 40.7669 250.515C40.4495 250.389 40.139 250.263 39.8228 250.128L39.778 250.11C39.3297 249.924 38.8754 249.726 38.4277 249.52C37.4082 249.052 36.394 248.541 35.4136 248.002C34.9036 247.724 34.3929 247.429 33.8967 247.128C26.0562 242.447 19.7644 235.547 15.8096 227.293C11.8549 219.039 10.413 209.797 11.6646 200.726C12.9162 191.655 16.8057 183.158 22.8457 176.3C28.8857 169.441 36.8077 164.527 45.6191 162.171C46.4224 161.955 47.2463 161.759 48.0673 161.588C48.5535 161.484 49.0814 161.382 49.6342 161.287C50.0099 161.221 50.3868 161.158 50.7705 161.105C51.7885 160.952 52.833 160.832 53.875 160.749L54.3898 160.709C54.4487 160.705 54.5077 160.701 54.5669 160.7C54.6773 160.69 54.804 160.683 54.9339 160.676C55.4593 160.645 55.9892 160.624 56.5088 160.613C57.6564 160.584 58.8098 160.598 59.9359 160.654C60.5321 160.683 61.1685 160.728 61.8812 160.791L62.1825 160.821C62.3721 160.841 62.5634 160.86 62.7525 160.883C63.1589 160.924 63.5919 160.978 64.1099 161.053C64.5329 161.114 64.9534 161.177 65.3742 161.248C66.9319 161.511 68.4748 161.857 69.9966 162.282C80.302 165.179 89.3028 171.549 95.4876 180.321C95.6614 180.565 95.8329 180.814 96.002 181.067C96.13 181.252 96.2547 181.441 96.3796 181.634C96.4194 181.691 96.4615 181.756 96.501 181.821C96.52 181.847 96.5369 181.874 96.5537 181.9L96.5731 181.931C96.788 182.261 97.0054 182.609 97.2389 182.995C100.628 188.602 102.8 194.864 103.613 201.37C104.426 207.877 103.861 214.482 101.955 220.754C100.05 227.025 96.8466 232.82 92.5556 237.76C88.2645 242.701 82.9823 246.675 77.0547 249.422C76.4123 249.725 75.7321 250.022 75.0348 250.305C74.28 250.614 73.5028 250.907 72.7263 251.175C72.1884 251.359 71.6363 251.538 71.0847 251.705C67.5792 252.766 63.9614 253.409 60.3058 253.62ZM39.9496 249.506L39.9513 249.506L40.0214 249.534C40.3478 249.673 40.6675 249.804 40.9965 249.934C41.0545 249.957 41.109 249.98 41.1662 249.999C42.0051 250.326 42.8638 250.631 43.7325 250.91C44.422 251.128 45.0558 251.316 45.6686 251.482C53.952 253.724 62.6935 253.594 70.9048 251.106C71.4492 250.942 71.9942 250.766 72.5244 250.584C73.2894 250.32 74.0554 250.031 74.8006 249.726C75.4885 249.447 76.1581 249.155 76.792 248.856C85.1534 245.021 92.1598 238.731 96.8867 230.814C101.614 222.897 103.839 213.726 103.269 204.511L103.269 204.511C102.841 197.015 100.588 189.738 96.7072 183.32C96.4772 182.938 96.2634 182.597 96.0534 182.274L96.0281 182.234C96.0173 182.217 96.0067 182.2 95.9939 182.183L95.9754 182.155C95.9412 182.098 95.9042 182.041 95.8644 181.984C95.7369 181.788 95.6157 181.603 95.4884 181.42C95.32 181.168 95.1516 180.923 94.9804 180.682C88.8784 172.027 79.9978 165.743 69.8299 162.884C68.3293 162.464 66.8079 162.124 65.2719 161.864C64.8565 161.794 64.4408 161.731 64.0222 161.672C63.5125 161.598 63.0877 161.545 62.685 161.504C62.4939 161.481 62.3057 161.462 62.1192 161.442L61.8186 161.412C61.1226 161.351 60.4942 161.307 59.9058 161.278C58.7946 161.223 57.6568 161.209 56.5235 161.238C56.0103 161.249 55.4879 161.269 54.9699 161.299C54.8436 161.307 54.7234 161.314 54.6019 161.323C54.5308 161.326 54.4822 161.329 54.4336 161.333L53.9244 161.372C52.8968 161.454 51.8667 161.572 50.8629 161.723L50.8317 161.726C50.4802 161.776 50.1102 161.838 49.7404 161.903C49.1952 161.996 48.676 162.096 48.1961 162.2C47.3843 162.369 46.5721 162.562 45.7797 162.775C37.0864 165.099 29.2706 169.948 23.3115 176.714C17.3525 183.481 13.5152 191.864 12.2806 200.813C11.046 209.763 12.4689 218.88 16.371 227.024C20.2731 235.167 26.4809 241.974 34.2166 246.592C34.7067 246.89 35.2089 247.179 35.7113 247.454C36.6795 247.986 37.6801 248.49 38.6863 248.951C39.1054 249.144 39.5299 249.331 39.9496 249.506Z" fill="#CBCBCB"/>
<path d="M96.3696 194.853C95.9058 195.54 95.2977 196.116 94.5881 196.541C93.8784 196.966 93.0846 197.229 92.2624 197.313C91.4402 197.396 90.6097 197.298 89.8294 197.024C89.0491 196.75 88.338 196.308 87.7461 195.729L75.8742 200.836L71.0204 194.346L87.8868 187.37C88.9216 186.436 90.2616 185.917 91.6529 185.909C93.0442 185.902 94.3902 186.407 95.4358 187.329C96.4814 188.252 97.154 189.527 97.3261 190.914C97.4982 192.3 97.1579 193.702 96.3696 194.853Z" fill="#9F616A"/>
<path d="M58.514 197.669L83.0177 187.933L87.7605 196.919L64.8829 205.438L58.514 197.669Z" fill="url(#paint3_linear_11_378)"/>
<path d="M70.9947 251.405C62.7273 253.907 53.9272 254.038 45.5873 251.784L45.8398 246.443L46.0721 241.454L53.154 228.925L55.4243 224.911L65.9173 228.069L67.3466 234.636L69.6247 245.11L70.9947 251.405Z" fill="#2F2E41"/>
<path d="M76.9242 249.139C76.266 249.449 75.5943 249.741 74.9183 250.015C74.1634 250.324 73.399 250.613 72.6251 250.88C72.0873 251.064 71.5438 251.239 70.9947 251.405C62.7274 253.907 53.9272 254.038 45.5873 251.784C44.9321 251.606 44.2821 251.411 43.6378 251.208C43.8305 253.05 43.8813 254.904 43.7898 256.753C42.7683 254.651 41.8595 252.495 41.0674 250.295C41.0122 250.148 40.9601 250.001 40.908 249.854C40.647 249.112 40.4128 248.402 40.1998 247.736C39.9559 246.964 39.7431 246.247 39.5619 245.591C38.843 243.017 38.5698 241.415 38.5698 241.415L43.91 228.401L45.1324 228.472L45.6387 228.499L48.7023 228.672L53.154 228.925L60.366 229.332L67.3466 234.637L73.6007 239.392C73.6007 239.392 74.1956 241.06 75.1373 243.825C75.6469 245.31 76.2526 247.112 76.9242 249.139Z" fill="#111738"/>
<path d="M52.8121 166.018C58.7449 165.675 63.2756 160.567 62.9315 154.609C62.5874 148.651 57.499 144.098 51.5661 144.441C45.6333 144.783 41.1026 149.891 41.4467 155.85C41.7908 161.808 46.8792 166.36 52.8121 166.018Z" fill="#9F616A"/>
<path d="M60.9792 177.525C60.9792 177.525 57.9346 169.659 51.8628 170.01C50.3448 170.097 47.9025 170.365 45.9865 171.785C38.2726 177.502 33.911 186.715 34.0921 196.343L34.9967 244.445C34.9967 244.445 45.4887 247.604 49.144 245.981C52.7992 244.358 55.9939 234.761 55.9939 234.761C55.9939 234.761 55.7911 247.48 59.5005 246.795C63.2099 246.11 77.1676 244.363 77.5263 242.46C77.885 240.557 67.9382 200.655 67.9382 200.655L60.9792 177.525Z" fill="url(#paint4_linear_11_378)"/>
<path d="M47.1494 158.694C48.1098 158.58 49.0697 158.853 50.0341 158.926C53.4844 159.184 56.9023 156.483 57.4628 153.055C57.4974 152.601 57.6059 152.155 57.784 151.736C58.2611 150.842 59.4517 150.608 60.4525 150.749C61.4533 150.891 62.4179 151.302 63.4285 151.297C64.9889 151.289 66.4269 150.241 67.1795 148.869C67.932 147.496 68.0727 145.853 67.8706 144.299L67.1703 145.128C66.83 144.502 66.6717 143.792 66.7132 143.08C66.3119 142.997 65.8962 143.019 65.5058 143.144C65.1155 143.268 64.7637 143.492 64.4839 143.792C63.8304 143.9 64.2519 142.576 63.7375 142.157C63.4914 142.024 63.2052 141.987 62.9338 142.054C61.5356 142.148 60.3419 141.139 59.1895 140.337C57.1931 138.952 54.9004 138.058 52.4967 137.727C50.8992 137.509 49.2165 137.556 47.7525 138.233C46.5502 138.789 45.5714 139.732 44.6718 140.707C42.4571 143.108 40.5339 145.889 39.7382 149.063C39.0924 151.662 39.2277 154.396 40.127 156.918C40.5971 158.228 42.0456 162.724 43.7864 162.73C45.9739 162.738 44.4457 159.013 47.1494 158.694Z" fill="#2F2E41"/>
<path opacity="0.1" d="M53.6353 192.2L43.5706 209.039L42.2259 246.878L53.6353 192.2Z" fill="black"/>
<path d="M99.6849 179.604C99.9267 179.218 100.006 178.832 99.8619 178.74C99.7178 178.649 99.405 178.888 99.1632 179.274C98.9213 179.659 98.8421 180.046 98.9862 180.137C99.1302 180.228 99.4431 179.99 99.6849 179.604Z" fill="#3F3D56"/>
<path d="M86.0232 197.907C85.7004 197.703 85.4714 197.378 85.3868 197.004C85.3022 196.631 85.3689 196.239 85.5721 195.915L97.0665 177.582C97.2697 177.257 97.5928 177.028 97.9649 176.943C98.3369 176.858 98.7272 176.925 99.0501 177.129L86.0232 197.907Z" fill="#6C63FF"/>
<path d="M86.6386 199.638L85.8847 199.161C85.7553 199.079 85.6432 198.972 85.5549 198.847C85.4665 198.721 85.4036 198.58 85.3697 198.43C85.3358 198.28 85.3315 198.125 85.3573 197.974C85.383 197.823 85.4382 197.678 85.5196 197.548L98.6068 176.674C98.7457 176.453 98.9665 176.296 99.2208 176.238C99.475 176.18 99.7417 176.226 99.9624 176.365L100.87 176.939L86.6386 199.638Z" fill="#2F2E41"/>
<path d="M98.2935 178.724L97.4178 180.12L97.7656 180.34L98.6414 178.944L98.2935 178.724Z" fill="#D0CDE1"/>
<path d="M97.0894 180.644L96.2136 182.041L96.5615 182.261L97.4372 180.864L97.0894 180.644Z" fill="#D0CDE1"/>
<path d="M45.432 259.01C45.8751 258.31 46.1599 257.52 46.2662 256.697C46.3726 255.874 46.298 255.038 46.0477 254.247C45.7973 253.456 45.3774 252.729 44.8174 252.119C44.2573 251.508 43.5709 251.028 42.8063 250.713L42.7563 237.74L34.8989 235.844L35.2257 254.163C34.7839 255.488 34.8413 256.93 35.3871 258.215C35.933 259.501 36.9293 260.541 38.1874 261.138C39.4454 261.736 40.8778 261.849 42.213 261.457C43.5482 261.064 44.6936 260.194 45.432 259.01Z" fill="#9F616A"/>
<path d="M44.7765 248.375L33.6049 249.02L28.5354 214.638L28.5441 214.606L37.2195 183.162C37.5249 182.055 38.0567 181.024 38.7808 180.135C39.5049 179.245 40.4056 178.517 41.4255 177.997C42.4453 177.477 43.562 177.175 44.7044 177.112C45.8468 177.049 46.9899 177.226 48.0609 177.63C49.1318 178.035 50.1072 178.66 50.9249 179.464C51.7426 180.268 52.3847 181.234 52.8103 182.301C53.2358 183.368 53.4356 184.512 53.3967 185.66C53.3579 186.809 53.0814 187.936 52.5848 188.971L41.5662 211.934L44.7765 248.375Z" fill="url(#paint5_linear_11_378)"/>
<path d="M231.888 133.909C206.369 135.384 184.395 115.746 182.891 90.1132C182.177 77.947 186.238 65.9865 194.203 56.7962C202.168 47.606 213.404 41.9176 225.5 40.9508L225.932 40.9165C226.662 40.8637 227.407 40.8302 228.134 40.8145C229.28 40.786 230.434 40.8 231.561 40.8562C232.158 40.8848 232.795 40.9295 233.507 40.9926L233.734 41.0151C244.74 42.0861 255.003 47.0772 262.666 55.0855C270.33 63.0937 274.888 73.5904 275.516 84.6769L275.516 84.6766C277.021 110.323 257.47 132.407 231.933 133.906L231.888 133.909ZM226.59 41.5012C226.385 41.5131 226.18 41.5249 225.979 41.5396L225.55 41.5738C200.916 43.5424 182.058 65.3009 183.512 90.0768C184.996 115.364 206.678 134.738 231.852 133.285L231.896 133.283C257.091 131.804 276.38 110.016 274.895 84.7131L274.895 84.7128C274.275 73.7742 269.778 63.4177 262.216 55.5166C254.655 47.6156 244.528 42.692 233.669 41.6364L233.444 41.6141C232.749 41.5525 232.12 41.5085 231.531 41.4803C230.419 41.4247 229.281 41.411 228.149 41.4392C227.636 41.4502 227.113 41.471 226.595 41.501L226.59 41.5012Z" fill="#CBCBCB"/>
<path d="M194.217 91.8715C194.3 91.7221 194.045 91.4214 193.648 91.2C193.251 90.9786 192.862 90.9203 192.78 91.0698C192.697 91.2192 192.952 91.5199 193.349 91.7413C193.746 91.9627 194.135 92.021 194.217 91.8715Z" fill="#3F3D56"/>
<path d="M192.719 89.2657C192.811 89.0999 192.934 88.9538 193.082 88.8358C193.23 88.7179 193.399 88.6303 193.581 88.5782C193.762 88.5261 193.952 88.5104 194.14 88.5321C194.328 88.5537 194.509 88.6123 194.675 88.7044L213.542 99.2275C213.707 99.3196 213.853 99.4435 213.97 99.5921C214.088 99.7407 214.175 99.911 214.227 100.093C214.279 100.276 214.295 100.467 214.273 100.655C214.252 100.844 214.194 101.026 214.102 101.192L192.719 89.2657Z" fill="#6C63FF"/>
<path d="M191.033 89.9774L191.553 89.0363C191.679 88.8074 191.891 88.6384 192.142 88.5665C192.392 88.4945 192.661 88.5256 192.889 88.6527L214.371 100.634C214.505 100.709 214.623 100.809 214.718 100.929C214.813 101.049 214.884 101.187 214.926 101.335C214.968 101.483 214.981 101.637 214.963 101.79C214.946 101.942 214.899 102.09 214.825 102.224L214.392 103.006L191.033 89.9774Z" fill="#2F2E41"/>
<path d="M194.147 90.298L193.947 90.6588L195.385 91.4606L195.584 91.0998L194.147 90.298Z" fill="#D0CDE1"/>
<path d="M196.123 91.4004L195.924 91.7612L197.361 92.563L197.561 92.2022L196.123 91.4004Z" fill="#D0CDE1"/>
<path d="M226.974 45.9338C234.118 45.5212 239.574 39.3706 239.16 32.196C238.745 25.0213 232.618 19.5395 225.474 19.9521C218.33 20.3646 212.875 26.5152 213.289 33.6899C213.703 40.8645 219.83 46.3463 226.974 45.9338Z" fill="#FFB8B8"/>
<path d="M244.25 131.081C233.926 134.631 222.682 134.399 212.508 130.426L211.962 103.702L211.917 101.624L211.906 100.949L211.883 99.9549L211.871 99.3203C211.871 99.3203 211.911 99.3149 211.989 99.3073C212.199 99.2795 212.684 99.217 213.381 99.1361C214.189 99.0425 215.275 98.9203 216.542 98.7939C216.843 98.7641 217.153 98.7337 217.472 98.6996C224.147 98.0638 234.591 97.4075 236.09 99.3519L236.332 100.533L236.723 102.442L237.522 106.341C237.522 106.341 244.768 118.941 244.25 131.081Z" fill="#111738"/>
<path d="M243.651 63.6346L242.468 87.4168L238.238 98.4762L236.67 102.577L210.624 103.763L212.253 85.3896C207.9 75.7858 216.663 71.306 216.663 71.306L224.882 51.5753C224.882 51.5753 227.294 50.1843 233.763 49.4957C239.777 48.8555 235.076 50.0478 235.076 50.0478C242.918 48.8002 243.651 63.6346 243.651 63.6346Z" fill="url(#paint6_linear_11_378)"/>
<path opacity="0.2" d="M237.26 88.9693L233.03 100.029C231.303 97.191 229.925 93.9436 229.812 91.9855C229.501 86.5991 235.029 89.141 235.029 89.141C235.029 89.141 229.314 65.5485 228.902 58.4194C228.629 53.6841 233.774 74.4722 237.26 88.9693Z" fill="black"/>
<path d="M240.675 24.1676C239.714 22.1538 238.306 20.3881 236.559 19.0066C237.228 18.7377 237.769 18.2235 238.073 17.5683C238.514 16.5498 238.178 15.3238 237.45 14.4771C236.79 13.7642 235.958 13.2336 235.036 12.9358C235.714 13.1997 236.446 13.2977 237.17 13.2217C238.044 13.079 238.884 12.3348 238.782 11.4775C238.685 10.6607 237.85 10.1529 237.105 9.76673C236.621 9.51625 236.138 9.26578 235.654 9.01532C235.777 8.73776 235.883 8.45278 235.971 8.16202C236.315 7.10364 236.347 5.96798 236.063 4.89147C235.78 3.81495 235.193 2.84336 234.373 2.09339C235.994 3.56996 235.743 6.01452 234.345 8.06734C234.299 8.13349 234.251 8.19829 234.204 8.26373C233.894 8.10316 233.584 7.94259 233.274 7.78203C232.501 7.38156 231.698 6.97243 230.824 6.91793C229.95 6.86343 228.981 7.26562 228.671 8.06374C228.34 8.91804 228.833 9.9554 228.383 10.7568C227.989 11.4581 227.054 11.6566 226.233 11.6718C225.413 11.6871 224.535 11.6075 223.828 12.0131C222.845 12.5769 222.592 13.9628 223.101 14.9561C223.326 15.3787 223.647 15.7426 224.037 16.019C221.888 16.4479 219.791 17.2172 217.732 17.9953C215.304 18.9129 212.833 19.8814 210.857 21.5691C208.881 23.2567 207.459 25.8228 207.806 28.4052C208.152 30.9876 210.954 34.9246 213.487 34.3623L213.806 33.1158C215.309 32.2884 217.033 31.9531 218.736 32.1567C220.439 32.3604 222.037 33.0928 223.306 34.2519C223.241 32.6171 225.684 31.9316 226.979 32.9251C228.274 33.9186 228.616 35.705 228.806 37.3299C228.995 38.9549 229.189 40.725 230.329 41.8937C231.424 43.0154 233.193 43.2806 234.694 42.841C236.195 42.4013 237.454 41.3563 238.478 40.1706C242.195 35.869 243.093 29.3216 240.675 24.1676Z" fill="#2F2E41"/>
<path d="M203.808 102.591C204.506 103.036 205.292 103.323 206.112 103.43C206.931 103.537 207.764 103.463 208.552 103.212C209.339 102.961 210.062 102.539 210.67 101.977C211.278 101.415 211.755 100.726 212.069 99.9583L247.347 98.6233L249.231 90.7334L208.63 92.3437C207.31 91.8993 205.875 91.9563 204.595 92.5038C203.315 93.0514 202.28 94.0514 201.686 95.3146C201.091 96.5777 200.979 98.0161 201.37 99.3572C201.762 100.698 202.629 101.849 203.808 102.591Z" fill="#FFB8B8"/>
<path d="M235.072 48.7644C235.072 48.7644 226.905 49.8718 227.317 57.0009C227.729 64.13 236.606 89.0499 236.606 89.0499C236.606 89.0499 231.078 86.508 231.389 91.8944C231.7 97.2809 241.598 112.446 241.94 101.935C241.94 101.935 255.891 107.805 254.38 95.3354C252.868 82.8654 242.822 56.9003 242.822 56.9003C242.822 56.9003 241.354 47.9248 235.072 48.7644Z" fill="url(#paint7_linear_11_378)"/>
</g>
<defs>
<linearGradient id="paint0_linear_11_378" x1="118.266" y1="125.62" x2="134.453" y2="124.685" gradientUnits="userSpaceOnUse">
<stop stop-color="#6100FF"/>
<stop offset="1" stop-color="#AD00FF"/>
</linearGradient>
<linearGradient id="paint1_linear_11_378" x1="143.691" y1="120.826" x2="165.537" y2="119.565" gradientUnits="userSpaceOnUse">
<stop stop-color="#6100FF"/>
<stop offset="1" stop-color="#AD00FF"/>
</linearGradient>
<linearGradient id="paint2_linear_11_378" x1="143.973" y1="125.719" x2="160.719" y2="124.752" gradientUnits="userSpaceOnUse">
<stop stop-color="#6100FF"/>
<stop offset="1" stop-color="#AD00FF"/>
</linearGradient>
<linearGradient id="paint3_linear_11_378" x1="58.5087" y1="197.577" x2="87.7012" y2="195.891" gradientUnits="userSpaceOnUse">
<stop stop-color="#6100FF"/>
<stop offset="1" stop-color="#AD00FF"/>
</linearGradient>
<linearGradient id="paint4_linear_11_378" x1="32.9915" y1="209.719" x2="75.5146" y2="207.264" gradientUnits="userSpaceOnUse">
<stop stop-color="#6100FF"/>
<stop offset="1" stop-color="#AD00FF"/>
</linearGradient>
<linearGradient id="paint5_linear_11_378" x1="28.4802" y1="213.682" x2="54.9614" y2="212.153" gradientUnits="userSpaceOnUse">
<stop stop-color="#6100FF"/>
<stop offset="1" stop-color="#AD00FF"/>
</linearGradient>
<linearGradient id="paint6_linear_11_378" x1="209.108" y1="77.5153" x2="244.335" y2="75.4811" gradientUnits="userSpaceOnUse">
<stop stop-color="#6100FF"/>
<stop offset="1" stop-color="#AD00FF"/>
</linearGradient>
<linearGradient id="paint7_linear_11_378" x1="228.511" y1="77.6811" x2="253.311" y2="76.2491" gradientUnits="userSpaceOnUse">
<stop stop-color="#6100FF"/>
<stop offset="1" stop-color="#AD00FF"/>
</linearGradient>
<clipPath id="clip0_11_378">
<rect width="271" height="248" fill="white" transform="translate(0.0769043 15.6227) rotate(-3.30485)"/>
</clipPath>
</defs>
</svg>
